<svg width="22" height="28" viewBox="0 0 22 28" fill="none" xmlns="http://www.w3.org/2000/svg">
<path d="M20.0588 24.0731C20.5859 23.8827 20.9174 24.5013 21.2704 25.4753C21.3665 25.9281 21.3113 26.3998 21.1132 26.8182C20.7771 27.0644 20.4222 27.2842 20.0519 27.4755C19.3694 27.6588 18.6621 27.7335 17.9563 27.6966C17.4333 27.6354 16.8614 27.6694 16.3605 27.636C15.8596 27.6026 15.4019 27.5238 15.1155 27.4903C13.9374 27.3203 12.7947 26.9609 11.7314 26.4263C9.59381 25.3102 7.63411 23.883 5.91662 22.1914C5.52995 21.79 5.21305 21.3269 4.97894 20.8213L2.35571 15.9515C2.24391 15.6497 2.0527 15.3834 1.80222 15.1809C1.22324 14.3128 0.818353 13.3409 0.610008 12.3189C0.452019 11.6197 0.32184 10.8986 0.225458 10.3202C0.187612 9.90077 0.186304 9.47888 0.221547 9.05927C0.344112 8.23004 0.511907 7.40813 0.724184 6.5972C0.903055 5.80748 1.13312 5.03022 1.41293 4.27034C1.49992 4.06624 1.46676 3.81027 1.76104 3.66824C2.48282 3.32415 2.46195 2.85534 2.60293 2.40547C2.83963 1.79123 3.17074 1.21761 3.58435 0.705269C3.88031 0.444111 4.22545 0.244535 4.59959 0.118214C4.93413 -0.0443133 5.75909 0.455554 5.8097 0.562312C6.00697 0.925715 6.49172 0.881599 6.86749 1.0138C6.9995 1.0539 7.12871 1.10271 7.25426 1.15989C7.50385 1.7427 7.68661 2.35183 7.79904 2.97565C7.97402 3.57286 8.11797 4.1787 8.23031 4.79074L8.1532 5.44975C8.13333 5.91651 8.13761 6.384 8.16601 6.85034L8.20322 7.61096L8.32531 8.29328L8.4812 9.11821C8.51133 9.34929 8.48384 9.5842 8.40118 9.80209C8.5108 10.3303 8.67921 10.8447 8.90327 11.3356C9.10645 11.8323 9.33612 12.3178 9.5913 12.7899C9.8952 13.3588 10.0425 13.9981 10.0182 14.6423C10.0025 14.7759 10.0529 14.9088 10.1532 14.9984L10.9687 16.4425L11.3603 17.1942L11.8449 17.9063C12.0047 18.1486 12.19 18.3731 12.3976 18.576L13.0491 19.1564C13.1112 19.2517 13.167 19.3508 13.2162 19.4533C13.2677 19.5843 13.3436 19.7044 13.4399 19.8072C14.4721 20.7449 15.6695 21.4834 16.9713 21.985C17.3064 22.1683 17.6236 22.3827 17.9186 22.6252C18.2583 22.8293 18.6201 22.9943 18.9969 23.1169C19.109 23.1301 19.2849 23.3523 19.4843 23.5899C19.6837 23.8275 19.9548 24.0987 20.0588 24.0731Z" fill="#013819"/>
</svg>
