<svg width="45" height="56" viewBox="0 0 45 56" fill="none" xmlns="http://www.w3.org/2000/svg">
<path d="M41.551 51.9183C42.7092 51.8948 43.8076 52.4318 44.4996 53.3599C44.7803 53.6574 44.7656 54.538 44.3541 54.6033C43.6674 54.8633 43.0276 55.1539 42.2333 55.3635C41.7752 55.4618 41.3083 55.5127 40.8398 55.5155C39.9033 55.6286 38.961 55.6867 38.0177 55.6895C36.9382 55.6674 35.8608 55.5834 34.791 55.438L33.3841 55.2734L32.2723 55.0677C29.9048 54.6466 27.6054 53.9069 25.4368 52.8687C21.0088 50.7566 16.9406 47.9625 13.381 44.5887C12.5827 43.8533 11.8745 43.0257 11.2716 42.1235C9.28092 38.9663 7.26181 35.9445 5.38757 32.7632C5.11052 32.1999 4.74469 31.6847 4.30405 31.2373C3.87452 30.6773 3.51364 30.0681 3.22908 29.4225C2.65148 28.245 2.13982 27.0363 1.69649 25.8022C1.23963 24.539 0.85093 23.2523 0.532058 21.9476C0.345693 21.1673 0.206423 20.3765 0.115 19.5796C-0.0711334 16.2297 0.144066 12.8697 0.756022 9.57105C0.789739 9.0735 0.963787 8.59569 1.25804 8.19288C1.95373 7.38615 2.40619 6.39895 2.56298 5.34571C2.79337 4.67407 3.07236 4.02007 3.39774 3.38887C3.75975 2.77579 4.17819 2.21974 4.59146 1.60006C5.09757 1.06682 5.66958 0.600078 6.29371 0.211082C6.80529 -0.170215 7.4034 0.542599 7.40357 0.756892C7.40407 1.39978 7.99634 1.19178 8.3333 1.33204C8.45763 1.37179 8.5743 1.43232 8.67835 1.51107C8.62188 2.72949 8.62649 3.94998 8.69219 5.16797C8.83565 6.96198 9.05301 8.66381 9.06498 8.99292C9.03748 10.5807 9.09176 12.1689 9.22759 13.7512C9.43763 15.586 9.82605 17.3959 10.3874 19.1556C10.5177 19.6992 10.5796 20.2569 10.5717 20.8157C10.9657 22.098 11.4656 23.3454 12.0663 24.5451C12.8813 26.3168 13.8961 27.9985 13.9563 28.1316C14.2859 28.8396 14.6516 29.5302 15.0519 30.2009C15.4345 30.9048 15.7159 31.6591 15.8878 32.4414C15.9756 32.7505 16.132 33.0359 16.3454 33.2764C17.1642 34.368 17.9442 35.4676 18.7492 36.5702C19.5099 37.7076 20.3294 38.8048 21.2042 39.8573C21.65 40.3991 22.1398 40.9033 22.6685 41.3647C23.1683 41.8391 23.6944 42.304 24.2287 42.8077C24.4052 42.9948 24.5718 43.191 24.7278 43.3955C24.9159 43.661 25.1439 43.896 25.4036 44.0922C27.9805 46.2122 30.902 47.8756 34.0412 49.0102C35.6576 49.7931 37.348 50.4131 39.0875 50.8611C39.871 51.2953 40.6963 51.6495 41.551 51.9183Z" fill="#013819"/>
</svg>
