<svg width="223" height="57" viewBox="0 0 223 57" fill="none" xmlns="http://www.w3.org/2000/svg">
<g clip-path="url(#clip0_189_891)">
<rect y="0.0932617" width="223" height="56.6543" rx="4" fill="url(#paint0_linear_189_891)"/>
<path fill-rule="evenodd" clip-rule="evenodd" d="M193.009 28.24C187.479 25.2641 187.689 32.0868 191.329 31.7965C188.319 33.8288 191.889 39.4902 194.759 33.6836C196.019 31.1433 196.649 30.1997 196.789 29.982C196.789 29.982 195.739 29.619 193.009 28.1674V28.24Z" fill="#FF3C4B"/>
<path fill-rule="evenodd" clip-rule="evenodd" d="M151.921 32.8854C148.281 32.3047 149.681 36.0064 151.641 35.208C150.311 36.8774 153.321 39.3452 153.881 35.5709C154.091 33.9741 154.301 33.2483 154.371 33.1757C154.371 33.1757 153.741 33.1757 151.991 32.8854H151.921Z" fill="#FF3C4B"/>
<path fill-rule="evenodd" clip-rule="evenodd" d="M155.56 43.1202C159.62 41.2331 155.84 38.4024 154.37 40.5799C154.65 37.9669 150.03 37.5314 151.85 41.7412C152.69 43.5557 152.9 44.3541 152.9 44.4993C152.9 44.4993 153.53 44.0638 155.49 43.1202H155.56Z" fill="#FB6EB0"/>
<path fill-rule="evenodd" clip-rule="evenodd" d="M171.169 25.3372C168.439 19.0225 164.309 24.8291 167.389 27.1517C163.609 26.7162 162.979 33.9744 169.069 31.0712C171.729 29.8373 172.919 29.4744 173.129 29.4018C173.129 29.4018 172.499 28.3856 171.169 25.3372Z" fill="#FF3C4B"/>
<path fill-rule="evenodd" clip-rule="evenodd" d="M117.199 36.6587C110.899 31.2151 109.359 39.9975 113.979 40.7233C109.569 42.3927 112.579 50.6671 117.829 44.1347C120.139 41.304 121.259 40.2152 121.469 40.0701C121.469 40.0701 120.209 39.3443 117.129 36.6587H117.199Z" fill="#FF3C4B"/>
<path fill-rule="evenodd" clip-rule="evenodd" d="M25.5076 55.7986C23.3376 50.1286 29.6376 51.0386 29.0076 54.4686C31.1776 51.7386 36.0776 55.7986 30.4076 57.9686C27.8876 58.8786 26.9776 59.4386 26.7676 59.5786C26.7676 59.5786 26.5576 58.5286 25.5076 55.7986Z" fill="#FB6EB0"/>
<path fill-rule="evenodd" clip-rule="evenodd" d="M-5.63945 37.3904C-7.52945 32.5604 -2.13945 33.4004 -2.62945 36.2704C-0.809451 33.9604 3.39055 37.3904 -1.43945 39.2104C-3.53945 40.0504 -4.37945 40.4704 -4.51945 40.6104C-4.51945 40.6104 -4.72945 39.7704 -5.56945 37.3904H-5.63945Z" fill="#FB6EB0"/>
<path fill-rule="evenodd" clip-rule="evenodd" d="M6.81758 2.03879C4.92758 -2.79121 10.3176 -1.95121 9.82757 0.91879C11.6476 -1.39121 15.7776 2.03879 11.0176 3.85879C8.91757 4.69879 8.07758 5.11879 7.93758 5.25879C7.93758 5.25879 7.72758 4.41879 6.88758 2.03879H6.81758Z" fill="#FB6EB0"/>
<path fill-rule="evenodd" clip-rule="evenodd" d="M-4.7293 19.6788C-6.6193 14.8488 -1.22929 15.6188 -1.71929 18.5588C0.100706 16.2488 4.30071 19.6788 -0.529294 21.4988C-2.62929 22.3388 -3.46929 22.7588 -3.60929 22.8988C-3.60929 22.8988 -3.8193 22.0588 -4.7293 19.6788Z" fill="#FB6EB0"/>
<path fill-rule="evenodd" clip-rule="evenodd" d="M47.8393 28.2888C43.0793 26.1888 47.4193 22.9688 49.1693 25.4188C48.8193 22.4788 54.2093 21.9888 52.1093 26.6788C51.1993 28.7088 50.9193 29.6888 50.9193 29.8288C50.9193 29.8288 50.1493 29.3388 47.8393 28.2888Z" fill="#FB6EB0"/>
<path fill-rule="evenodd" clip-rule="evenodd" d="M2.54871 26.1889C-0.391286 24.8589 2.26872 22.8289 3.38872 24.3689C3.17872 22.4789 6.53871 22.1989 5.20871 25.1389C4.64871 26.4689 4.43872 27.0289 4.43872 27.0989C4.43872 27.0989 3.94871 26.8189 2.54871 26.1889Z" fill="#FB6EB0"/>
<path fill-rule="evenodd" clip-rule="evenodd" d="M26.4198 11.2104C23.4798 9.88041 26.1398 7.85041 27.2598 9.39041C27.0498 7.50041 30.4098 7.22041 29.0798 10.1604C28.5198 11.4904 28.3798 12.0504 28.3098 12.1204C28.3098 12.1204 27.8198 11.8404 26.3498 11.2104H26.4198Z" fill="#FB6EB0"/>
<path fill-rule="evenodd" clip-rule="evenodd" d="M7.44765 53.2788C4.08765 51.8088 7.16764 49.4988 8.35764 51.2488C8.14764 49.1488 11.9276 48.7988 10.4576 52.1588C9.82764 53.6288 9.61764 54.2588 9.61764 54.3988C9.61764 54.3988 9.05765 54.0488 7.44765 53.3488V53.2788Z" fill="#FB6EB0"/>
<path fill-rule="evenodd" clip-rule="evenodd" d="M18.5805 35.2199C15.2205 33.7499 18.3005 31.4399 19.4905 33.1199C19.2805 31.0199 23.0605 30.6699 21.5905 34.0299C20.9605 35.4999 20.7505 36.1299 20.7505 36.2699C20.7505 36.2699 20.1905 35.9199 18.5805 35.2199Z" fill="#FB6EB0"/>
<path fill-rule="evenodd" clip-rule="evenodd" d="M52.5271 13.6593C49.1671 12.1893 52.2471 9.87935 53.5071 11.5593C53.2271 9.45934 57.0771 9.10934 55.6071 12.4693C54.9771 13.9393 54.7671 14.5693 54.7671 14.7093C54.7671 14.7093 54.2071 14.3593 52.5971 13.6593H52.5271Z" fill="#FB6EB0"/>
<path fill-rule="evenodd" clip-rule="evenodd" d="M61.4177 20.0288C58.0577 18.5588 61.1378 16.2488 62.3978 17.9988C62.1878 15.8988 65.9677 15.5488 64.4977 18.9088C63.8677 20.3788 63.6577 21.0088 63.6577 21.1488C63.6577 21.1488 63.0977 20.7988 61.4877 20.0988L61.4177 20.0288Z" fill="#FB6EB0"/>
<path fill-rule="evenodd" clip-rule="evenodd" d="M39.44 41.5896C35.38 39.7696 39.16 37.0396 40.63 39.1396C40.35 36.6196 44.97 36.1996 43.15 40.2596C42.31 42.0096 42.1 42.7796 42.1 42.9196C42.1 42.9196 41.47 42.4996 39.51 41.5896H39.44Z" fill="#FB6EB0"/>
<path fill-rule="evenodd" clip-rule="evenodd" d="M50.6384 55.2401C46.2984 53.3501 50.2884 50.4101 51.8284 52.5801C51.5484 49.9201 56.4484 49.4301 54.4884 53.7701C53.6484 55.6601 53.4384 56.5001 53.3684 56.6401C53.3684 56.6401 52.6684 56.2201 50.5684 55.2401H50.6384Z" fill="#FB6EB0"/>
<path fill-rule="evenodd" clip-rule="evenodd" d="M68.2095 46.7001C66.9495 42.1501 71.7095 43.3401 71.0095 45.9301C72.8995 43.9701 76.3995 47.4701 71.8495 48.7301C69.8895 49.2901 69.0495 49.6401 68.9095 49.7101C68.9095 49.7101 68.8395 48.8701 68.2095 46.7001Z" fill="#FB6EB0"/>
<path fill-rule="evenodd" clip-rule="evenodd" d="M30.0598 1.61993C24.8798 1.26993 27.8898 -3.28007 30.3398 -1.60007C29.0098 -4.26007 33.9098 -6.57007 33.5598 -1.39007C33.4198 0.849926 33.4898 1.82992 33.4898 1.96992C33.4898 1.96992 32.6498 1.75993 30.1298 1.61993H30.0598Z" fill="#FB6EB0"/>
<path fill-rule="evenodd" clip-rule="evenodd" d="M27.6805 19.8186C21.5905 17.0886 27.1905 12.9586 29.4305 16.1086C29.0105 12.3286 35.9405 11.6986 33.2105 17.7886C32.0205 20.4486 31.6705 21.6386 31.6005 21.8486C31.6005 21.8486 30.6205 21.2186 27.6805 19.8886V19.8186Z" fill="#FB6EB0"/>
<path fill-rule="evenodd" clip-rule="evenodd" d="M83.5402 28.289C77.4502 25.559 83.1202 21.429 85.2902 24.509C84.8702 20.729 91.8002 20.099 89.0702 26.189C87.8802 28.849 87.5302 30.039 87.4602 30.249C87.4602 30.249 86.4802 29.619 83.5402 28.289Z" fill="#FB6EB0"/>
<path fill-rule="evenodd" clip-rule="evenodd" d="M85.0079 50.7596C79.7579 44.4596 88.2279 42.9196 88.9279 47.5396C90.5379 43.1296 98.5179 46.2096 92.2179 51.3896C89.4179 53.6996 88.4379 54.8196 88.2279 55.0296C88.2279 55.0296 87.5279 53.7696 84.9379 50.6896L85.0079 50.7596Z" fill="#FB6EB0"/>
<path fill-rule="evenodd" clip-rule="evenodd" d="M74.5803 20.5177C76.1903 14.9177 80.4603 19.2577 78.0103 21.5677C81.2303 20.7277 82.6303 26.6777 77.0303 24.9977C74.5803 24.2977 73.5303 24.1577 73.3203 24.1577C73.3203 24.1577 73.7403 23.2477 74.5803 20.5177Z" fill="#FF3C4B"/>
<path fill-rule="evenodd" clip-rule="evenodd" d="M87.7417 18.209C89.0017 13.869 92.3617 17.229 90.4017 19.049C92.9217 18.419 93.9717 23.039 89.6317 21.779C87.7417 21.219 86.9017 21.149 86.7617 21.079C86.7617 21.079 87.1117 20.379 87.7417 18.209Z" fill="#FF3C4B"/>
<path fill-rule="evenodd" clip-rule="evenodd" d="M61.9114 23.9489C66.7414 22.0589 65.9714 27.4489 63.0314 26.9589C65.3414 28.7789 61.9114 32.9789 60.0914 28.1489C59.2514 26.0489 58.8314 25.2089 58.6914 25.0689C58.6914 25.0689 59.5314 24.8589 61.9114 24.0189V23.9489Z" fill="#FF3C4B"/>
<path fill-rule="evenodd" clip-rule="evenodd" d="M39.2317 -2.1624C44.0617 -4.0524 43.2217 1.3376 40.3517 0.847597C42.6617 2.6676 39.2317 6.8676 37.3417 2.0376C36.5717 -0.062403 36.0817 -0.902403 36.0117 -1.0424C36.0117 -1.0424 36.8517 -1.2524 39.2317 -2.0924V-2.1624Z" fill="#FF3C4B"/>
<path fill-rule="evenodd" clip-rule="evenodd" d="M0.381562 -4.12081C6.05156 -6.29081 5.14156 0.00918627 1.71156 -0.620814C4.44156 1.54919 0.381559 6.44919 -1.78844 0.779188C-2.69844 -1.74081 -3.25844 -2.65081 -3.39844 -2.86081C-3.39844 -2.86081 -2.34844 -3.07081 0.381562 -4.12081Z" fill="#FF3C4B"/>
<path fill-rule="evenodd" clip-rule="evenodd" d="M30.8997 44.3181C35.7297 42.4281 34.8897 47.8181 32.0197 47.3281C34.3297 49.1481 30.8997 53.3481 29.0797 48.5181C28.2397 46.4181 27.8197 45.5781 27.6797 45.4381C27.6797 45.4381 28.5197 45.2281 30.8997 44.3881V44.3181Z" fill="#FF3C4B"/>
<path fill-rule="evenodd" clip-rule="evenodd" d="M43.0789 31.7186C46.7189 31.1586 45.3189 34.7286 43.3589 33.9586C44.6889 35.5686 41.6789 37.9486 41.1189 34.3086C40.9089 32.7686 40.6989 32.0686 40.6289 31.9986C40.6289 31.9986 41.2589 31.9986 43.0089 31.7186H43.0789Z" fill="#FF3C4B"/>
<path fill-rule="evenodd" clip-rule="evenodd" d="M66.2512 56.779C71.0812 54.889 70.2412 60.279 67.3712 59.789C69.6812 61.679 66.2512 65.809 64.4312 60.979C63.5912 58.879 63.1713 58.039 63.0312 57.899C63.0312 57.899 63.8712 57.689 66.2512 56.849V56.779Z" fill="#FF3C4B"/>
<path fill-rule="evenodd" clip-rule="evenodd" d="M48.6106 45.2282C53.4406 43.3382 52.6706 48.7282 49.7306 48.2382C52.0406 50.0582 48.6106 54.2582 46.7906 49.4282C45.9506 47.3282 45.5306 46.4882 45.3906 46.3482C45.3906 46.3482 46.2306 46.1382 48.6106 45.2982V45.2282Z" fill="#FF3C4B"/>
<path fill-rule="evenodd" clip-rule="evenodd" d="M42.1014 52.508C43.4314 49.498 45.4614 52.228 43.9214 53.348C45.8114 53.138 46.0914 56.498 43.1514 55.168C41.8214 54.608 41.2614 54.398 41.1914 54.398C41.1914 54.398 41.4714 53.908 42.1014 52.508Z" fill="#FF3C4B"/>
<path fill-rule="evenodd" clip-rule="evenodd" d="M15.0812 57.4091C16.5512 54.0491 18.8612 57.1291 17.1812 58.3191C19.2812 58.0391 19.6312 61.8891 16.2712 60.4191C14.8012 59.7891 14.1713 59.5791 14.0312 59.5791C14.0312 59.5791 14.3812 59.0191 15.0812 57.4091Z" fill="#FF3C4B"/>
<path fill-rule="evenodd" clip-rule="evenodd" d="M74.9309 48.7279C76.9609 44.2479 79.9709 48.3779 77.6609 49.9879C80.4609 49.6379 80.9509 54.8179 76.4709 52.7879C74.5109 51.9479 73.6009 51.6679 73.4609 51.5979C73.4609 51.5979 73.9509 50.8979 74.9309 48.6579V48.7279Z" fill="#FF3C4B"/>
<path fill-rule="evenodd" clip-rule="evenodd" d="M9.97062 13.0989C11.7906 9.10887 14.5206 12.8189 12.4206 14.2889C14.9406 14.0089 15.3606 18.6289 11.3006 16.8089C9.55062 15.9689 8.78063 15.7589 8.64062 15.7589C8.64062 15.7589 9.06062 15.1289 9.97062 13.1689V13.0989Z" fill="#FF3C4B"/>
<path fill-rule="evenodd" clip-rule="evenodd" d="M1.99094 27.2386C7.52094 24.3686 7.31094 30.9486 3.67094 30.6686C6.68094 32.6286 3.11094 38.0886 0.240937 32.4886C-1.01906 30.0386 -1.64906 29.1286 -1.78906 28.9186C-1.78906 28.9186 -0.739063 28.5686 1.99094 27.1686V27.2386Z" fill="#FF3C4B"/>
<path fill-rule="evenodd" clip-rule="evenodd" d="M86.4816 50.8983C87.1816 45.6483 91.5916 48.9383 89.7016 51.3883C92.5016 50.1983 94.6016 55.3783 89.3516 54.6783C87.0416 54.3983 86.0616 54.3983 85.8516 54.3983C85.8516 54.3983 86.1316 53.5583 86.4816 50.9683V50.8983Z" fill="#FF3C4B"/>
<path fill-rule="evenodd" clip-rule="evenodd" d="M35.7992 8.75805C36.2192 4.06805 40.2792 6.86805 38.7392 9.03805C41.1892 7.91805 43.2192 12.398 38.5292 11.978C36.4992 11.768 35.5892 11.838 35.4492 11.838C35.4492 11.838 35.6592 11.068 35.8692 8.75805H35.7992Z" fill="#FF3C4B"/>
<path fill-rule="evenodd" clip-rule="evenodd" d="M23.0612 -1.11194C25.7912 -7.20194 29.9212 -1.60194 26.7712 0.638057C30.5512 0.218058 31.1812 7.21806 25.0912 4.41806C22.4312 3.22806 21.3112 2.87806 21.0312 2.80806C21.0312 2.80806 21.6612 1.82806 22.9912 -1.11194H23.0612Z" fill="#FF3C4B"/>
<path fill-rule="evenodd" clip-rule="evenodd" d="M23.8311 24.4388C26.5611 18.3488 30.6911 23.9488 27.6111 26.1888C31.3911 25.7688 32.0211 32.7688 25.9311 29.9688C23.2711 28.7788 22.0811 28.4288 21.8711 28.3588C21.8711 28.3588 22.5011 27.3788 23.8311 24.4388Z" fill="#FF3C4B"/>
<path fill-rule="evenodd" clip-rule="evenodd" d="M66.1792 6.16874C70.1692 3.36874 70.6592 8.40874 67.8592 8.68874C70.3792 9.87874 68.2092 14.4287 65.4092 10.4387C64.2192 8.68874 63.5892 8.05874 63.4492 7.91874C63.4492 7.91874 64.2192 7.56874 66.1792 6.16874Z" fill="#FF3C4B"/>
<path fill-rule="evenodd" clip-rule="evenodd" d="M90.6816 24.9279C95.2316 24.7179 93.0616 28.9879 90.6816 27.7279C92.0816 29.8979 88.0216 32.4179 87.8816 27.8679C87.8116 25.8379 87.6016 25.0679 87.6016 24.9279C87.6016 24.9279 88.3716 24.9979 90.6116 24.9279H90.6816Z" fill="#FF3C4B"/>
<path fill-rule="evenodd" clip-rule="evenodd" d="M77.8012 35.358C84.1012 30.108 85.6412 38.578 81.0212 39.278C85.4312 40.888 82.4212 48.868 77.1712 42.568C74.8612 39.838 73.7412 38.788 73.5312 38.648C73.5312 38.648 74.7912 37.948 77.8712 35.358H77.8012Z" fill="#FF3C4B"/>
<path fill-rule="evenodd" clip-rule="evenodd" d="M101.098 14.0897C100.398 8.83974 95.9884 12.1297 97.8784 14.5797C95.0784 13.3897 92.9784 18.5698 98.2284 17.8698C100.538 17.5898 101.518 17.5897 101.728 17.5897C101.728 17.5897 101.448 16.7497 101.098 14.1597V14.0897Z" fill="#FF3C4B"/>
<path d="M24.732 24.5316C24.3773 24.3823 24.0133 24.2516 23.64 24.1396C23.2853 24.0089 22.912 23.9063 22.52 23.8316C22.1467 23.7569 21.7547 23.7196 21.344 23.7196C21.0453 23.7196 20.7747 23.7476 20.532 23.8036C20.2893 23.8409 20.0747 23.9156 19.888 24.0276C19.72 24.1209 19.5893 24.2609 19.496 24.4476C19.4027 24.6343 19.356 24.8583 19.356 25.1196C19.356 25.4183 19.468 25.6796 19.692 25.9036C19.9347 26.1276 20.252 26.3423 20.644 26.5476C21.036 26.7343 21.4747 26.9303 21.96 27.1356C22.464 27.3409 22.968 27.5649 23.472 27.8076C23.9947 28.0503 24.4987 28.3303 24.984 28.6476C25.488 28.9649 25.936 29.3383 26.328 29.7676C26.72 30.1969 27.028 30.7009 27.252 31.2796C27.4947 31.8583 27.616 32.5303 27.616 33.2956C27.616 34.4716 27.42 35.4703 27.028 36.2916C26.636 37.0943 26.0947 37.7383 25.404 38.2236C24.732 38.7089 23.9667 39.0636 23.108 39.2876C22.2493 39.5116 21.3533 39.6236 20.42 39.6236C19.6173 39.6236 18.8147 39.5116 18.012 39.2876C17.228 39.0823 16.4813 38.7743 15.772 38.3636C15.0813 37.9529 14.4653 37.4396 13.924 36.8236L16.22 33.3236C16.556 33.6409 16.9293 33.9396 17.34 34.2196C17.7507 34.4996 18.1893 34.7236 18.656 34.8916C19.1227 35.0596 19.5893 35.1436 20.056 35.1436C20.4107 35.1436 20.728 35.1156 21.008 35.0596C21.3067 34.9849 21.5587 34.8823 21.764 34.7516C21.988 34.6023 22.156 34.4249 22.268 34.2196C22.38 33.9956 22.436 33.7343 22.436 33.4356C22.436 33.1183 22.324 32.8383 22.1 32.5956C21.876 32.3529 21.5773 32.1289 21.204 31.9236C20.8307 31.7183 20.4013 31.5129 19.916 31.3076C19.4493 31.1023 18.964 30.8783 18.46 30.6356C17.9747 30.3743 17.4893 30.0849 17.004 29.7676C16.5373 29.4503 16.1173 29.0769 15.744 28.6476C15.3707 28.1996 15.072 27.6863 14.848 27.1076C14.624 26.5289 14.512 25.8476 14.512 25.0636C14.512 23.9809 14.7173 23.0756 15.128 22.3476C15.5573 21.6196 16.0987 21.0409 16.752 20.6116C17.424 20.1823 18.1427 19.8743 18.908 19.6876C19.692 19.5009 20.4387 19.4076 21.148 19.4076C21.6707 19.4076 22.184 19.4449 22.688 19.5196C23.192 19.5943 23.696 19.7063 24.2 19.8556C24.704 20.0049 25.18 20.2009 25.628 20.4436L24.732 24.5316ZM42.573 39.2876H37.225L36.861 36.0676H34.313L33.977 39.2876H28.629L31.709 19.6876H39.409L42.573 39.2876ZM34.761 31.6716H36.413L35.573 23.8316L34.761 31.6716ZM44.8277 39.2876V19.6876H49.8677V34.8076H54.9637V39.2876H44.8277ZM57.1871 39.2876V19.6876H66.5671V24.1676H62.2271V26.9956H65.8111L64.3831 31.4476H62.1991L62.2271 34.8076H66.5111V39.2876H57.1871ZM68.3595 21.5076C68.3595 20.8356 68.5275 20.3036 68.8635 19.9116C69.2182 19.5009 69.7408 19.2956 70.4315 19.2956C71.1408 19.2956 71.6728 19.5009 72.0275 19.9116C72.4008 20.3036 72.5875 20.8263 72.5875 21.4796L71.8035 35.0596H69.0035L68.3595 21.5076ZM70.4035 35.4516C71.0008 35.4516 71.5142 35.6663 71.9435 36.0956C72.3728 36.5063 72.5875 37.0103 72.5875 37.6076C72.5875 38.2049 72.3728 38.7183 71.9435 39.1476C71.5142 39.5769 71.0008 39.7916 70.4035 39.7916C69.7875 39.7916 69.2648 39.5769 68.8355 39.1476C68.4248 38.7183 68.2195 38.2049 68.2195 37.6076C68.2195 37.0103 68.4248 36.5063 68.8355 36.0956C69.2648 35.6663 69.7875 35.4516 70.4035 35.4516ZM92.7359 24.5316C92.3812 24.3823 92.0172 24.2516 91.6439 24.1396C91.2892 24.0089 90.9159 23.9063 90.5239 23.8316C90.1506 23.7569 89.7586 23.7196 89.3479 23.7196C89.0492 23.7196 88.7786 23.7476 88.5359 23.8036C88.2932 23.8409 88.0786 23.9156 87.8919 24.0276C87.7239 24.1209 87.5932 24.2609 87.4999 24.4476C87.4066 24.6343 87.3599 24.8583 87.3599 25.1196C87.3599 25.4183 87.4719 25.6796 87.6959 25.9036C87.9386 26.1276 88.2559 26.3423 88.6479 26.5476C89.0399 26.7343 89.4786 26.9303 89.9639 27.1356C90.4679 27.3409 90.9719 27.5649 91.4759 27.8076C91.9986 28.0503 92.5026 28.3303 92.9879 28.6476C93.4919 28.9649 93.9399 29.3383 94.3319 29.7676C94.7239 30.1969 95.0319 30.7009 95.2559 31.2796C95.4986 31.8583 95.6199 32.5303 95.6199 33.2956C95.6199 34.4716 95.4239 35.4703 95.0319 36.2916C94.6399 37.0943 94.0986 37.7383 93.4079 38.2236C92.7359 38.7089 91.9706 39.0636 91.1119 39.2876C90.2532 39.5116 89.3572 39.6236 88.4239 39.6236C87.6212 39.6236 86.8186 39.5116 86.0159 39.2876C85.2319 39.0823 84.4852 38.7743 83.7759 38.3636C83.0852 37.9529 82.4692 37.4396 81.9279 36.8236L84.2239 33.3236C84.5599 33.6409 84.9332 33.9396 85.3439 34.2196C85.7546 34.4996 86.1932 34.7236 86.6599 34.8916C87.1266 35.0596 87.5932 35.1436 88.0599 35.1436C88.4146 35.1436 88.7319 35.1156 89.0119 35.0596C89.3106 34.9849 89.5626 34.8823 89.7679 34.7516C89.9919 34.6023 90.1599 34.4249 90.2719 34.2196C90.3839 33.9956 90.4399 33.7343 90.4399 33.4356C90.4399 33.1183 90.3279 32.8383 90.1039 32.5956C89.8799 32.3529 89.5812 32.1289 89.2079 31.9236C88.8346 31.7183 88.4052 31.5129 87.9199 31.3076C87.4532 31.1023 86.9679 30.8783 86.4639 30.6356C85.9786 30.3743 85.4932 30.0849 85.0079 29.7676C84.5412 29.4503 84.1212 29.0769 83.7479 28.6476C83.3746 28.1996 83.0759 27.6863 82.8519 27.1076C82.6279 26.5289 82.5159 25.8476 82.5159 25.0636C82.5159 23.9809 82.7212 23.0756 83.1319 22.3476C83.5612 21.6196 84.1026 21.0409 84.7559 20.6116C85.4279 20.1823 86.1466 19.8743 86.9119 19.6876C87.6959 19.5009 88.4426 19.4076 89.1519 19.4076C89.6746 19.4076 90.1879 19.4449 90.6919 19.5196C91.1959 19.5943 91.6999 19.7063 92.2039 19.8556C92.7079 20.0049 93.1839 20.2009 93.6319 20.4436L92.7359 24.5316ZM110.577 39.2876H105.229L104.865 36.0676H102.317L101.981 39.2876H96.6329L99.7129 19.6876H107.413L110.577 39.2876ZM102.765 31.6716H104.417L103.577 23.8316L102.765 31.6716ZM112.832 39.2876V19.6876H117.872V34.8076H122.968V39.2876H112.832ZM125.191 39.2876V19.6876H134.571V24.1676H130.231V26.9956H133.815L132.387 31.4476H130.203L130.231 34.8076H134.515V39.2876H125.191ZM136.363 21.5076C136.363 20.8356 136.531 20.3036 136.867 19.9116C137.222 19.5009 137.745 19.2956 138.435 19.2956C139.145 19.2956 139.677 19.5009 140.031 19.9116C140.405 20.3036 140.591 20.8263 140.591 21.4796L139.807 35.0596H137.007L136.363 21.5076ZM138.407 35.4516C139.005 35.4516 139.518 35.6663 139.947 36.0956C140.377 36.5063 140.591 37.0103 140.591 37.6076C140.591 38.2049 140.377 38.7183 139.947 39.1476C139.518 39.5769 139.005 39.7916 138.407 39.7916C137.791 39.7916 137.269 39.5769 136.839 39.1476C136.429 38.7183 136.223 38.2049 136.223 37.6076C136.223 37.0103 136.429 36.5063 136.839 36.0956C137.269 35.6663 137.791 35.4516 138.407 35.4516ZM160.74 24.5316C160.385 24.3823 160.021 24.2516 159.648 24.1396C159.293 24.0089 158.92 23.9063 158.528 23.8316C158.154 23.7569 157.762 23.7196 157.352 23.7196C157.053 23.7196 156.782 23.7476 156.54 23.8036C156.297 23.8409 156.082 23.9156 155.896 24.0276C155.728 24.1209 155.597 24.2609 155.504 24.4476C155.41 24.6343 155.364 24.8583 155.364 25.1196C155.364 25.4183 155.476 25.6796 155.7 25.9036C155.942 26.1276 156.26 26.3423 156.652 26.5476C157.044 26.7343 157.482 26.9303 157.968 27.1356C158.472 27.3409 158.976 27.5649 159.48 27.8076C160.002 28.0503 160.506 28.3303 160.992 28.6476C161.496 28.9649 161.944 29.3383 162.336 29.7676C162.728 30.1969 163.036 30.7009 163.26 31.2796C163.502 31.8583 163.624 32.5303 163.624 33.2956C163.624 34.4716 163.428 35.4703 163.036 36.2916C162.644 37.0943 162.102 37.7383 161.412 38.2236C160.74 38.7089 159.974 39.0636 159.116 39.2876C158.257 39.5116 157.361 39.6236 156.428 39.6236C155.625 39.6236 154.822 39.5116 154.02 39.2876C153.236 39.0823 152.489 38.7743 151.78 38.3636C151.089 37.9529 150.473 37.4396 149.932 36.8236L152.228 33.3236C152.564 33.6409 152.937 33.9396 153.348 34.2196C153.758 34.4996 154.197 34.7236 154.664 34.8916C155.13 35.0596 155.597 35.1436 156.064 35.1436C156.418 35.1436 156.736 35.1156 157.016 35.0596C157.314 34.9849 157.566 34.8823 157.772 34.7516C157.996 34.6023 158.164 34.4249 158.276 34.2196C158.388 33.9956 158.444 33.7343 158.444 33.4356C158.444 33.1183 158.332 32.8383 158.108 32.5956C157.884 32.3529 157.585 32.1289 157.212 31.9236C156.838 31.7183 156.409 31.5129 155.924 31.3076C155.457 31.1023 154.972 30.8783 154.468 30.6356C153.982 30.3743 153.497 30.0849 153.012 29.7676C152.545 29.4503 152.125 29.0769 151.752 28.6476C151.378 28.1996 151.08 27.6863 150.856 27.1076C150.632 26.5289 150.52 25.8476 150.52 25.0636C150.52 23.9809 150.725 23.0756 151.136 22.3476C151.565 21.6196 152.106 21.0409 152.76 20.6116C153.432 20.1823 154.15 19.8743 154.916 19.6876C155.7 19.5009 156.446 19.4076 157.156 19.4076C157.678 19.4076 158.192 19.4449 158.696 19.5196C159.2 19.5943 159.704 19.7063 160.208 19.8556C160.712 20.0049 161.188 20.2009 161.636 20.4436L160.74 24.5316ZM178.581 39.2876H173.233L172.869 36.0676H170.321L169.985 39.2876H164.637L167.717 19.6876H175.417L178.581 39.2876ZM170.769 31.6716H172.421L171.581 23.8316L170.769 31.6716ZM180.836 39.2876V19.6876H185.876V34.8076H190.972V39.2876H180.836ZM193.195 39.2876V19.6876H202.575V24.1676H198.235V26.9956H201.819L200.391 31.4476H198.207L198.235 34.8076H202.519V39.2876H193.195ZM204.367 21.5076C204.367 20.8356 204.535 20.3036 204.871 19.9116C205.226 19.5009 205.749 19.2956 206.439 19.2956C207.149 19.2956 207.681 19.5009 208.035 19.9116C208.409 20.3036 208.595 20.8263 208.595 21.4796L207.811 35.0596H205.011L204.367 21.5076ZM206.411 35.4516C207.009 35.4516 207.522 35.6663 207.951 36.0956C208.381 36.5063 208.595 37.0103 208.595 37.6076C208.595 38.2049 208.381 38.7183 207.951 39.1476C207.522 39.5769 207.009 39.7916 206.411 39.7916C205.795 39.7916 205.273 39.5769 204.843 39.1476C204.433 38.7183 204.227 38.2049 204.227 37.6076C204.227 37.0103 204.433 36.5063 204.843 36.0956C205.273 35.6663 205.795 35.4516 206.411 35.4516Z" fill="white"/>
<path fill-rule="evenodd" clip-rule="evenodd" d="M221.011 6.61081C222.901 1.60265 217.511 2.47364 218.001 5.4495C216.181 3.05429 211.981 6.61081 216.811 8.49794C218.911 9.36893 219.751 9.80442 219.891 9.94958C219.891 9.94958 220.101 9.0786 220.941 6.61081H221.011Z" fill="#FB6EB0"/>
<path fill-rule="evenodd" clip-rule="evenodd" d="M169.492 57.8533C171.662 51.9742 165.362 52.9177 165.992 56.4743C163.822 53.6436 158.922 57.8533 164.592 60.1034C167.112 61.0469 168.022 61.6276 168.232 61.7728C168.232 61.7728 168.442 60.684 169.492 57.8533Z" fill="#FB6EB0"/>
<path fill-rule="evenodd" clip-rule="evenodd" d="M201.444 48.4565C203.334 43.4484 197.944 44.3193 198.434 47.2952C196.614 44.9 192.414 48.4565 197.244 50.3436C199.344 51.2146 200.184 51.6501 200.324 51.7953C200.324 51.7953 200.534 50.9243 201.374 48.4565H201.444Z" fill="#FB6EB0"/>
<path fill-rule="evenodd" clip-rule="evenodd" d="M213.241 26.1368C213.801 22.3626 210.231 23.8142 211.001 25.8465C209.391 24.4674 207.011 27.5885 210.651 28.1691C212.261 28.3869 212.891 28.6046 212.961 28.6772C212.961 28.6772 212.961 28.024 213.241 26.2094V26.1368Z" fill="#FB6EB0"/>
<path fill-rule="evenodd" clip-rule="evenodd" d="M188.182 2.11081C190.072 -2.89735 184.682 -2.02636 185.172 0.9495C183.352 -1.44571 179.222 2.11081 183.982 3.99794C186.082 4.86893 186.922 5.30442 187.062 5.44958C187.062 5.44958 187.272 4.5786 188.112 2.11081H188.182Z" fill="#FB6EB0"/>
<path fill-rule="evenodd" clip-rule="evenodd" d="M199.587 20.6527C201.52 15.4166 196.009 16.2513 196.51 19.4385C194.65 16.9343 190.356 20.6527 195.294 22.6257C197.441 23.5364 198.299 23.9917 198.442 24.1435C198.442 24.1435 198.657 23.2328 199.587 20.6527Z" fill="#FB6EB0"/>
<path fill-rule="evenodd" clip-rule="evenodd" d="M147.161 29.3287C151.921 27.1513 147.581 23.8125 145.831 26.3529C146.181 23.3044 140.791 22.7964 142.891 27.6594C143.801 29.7642 144.081 30.7804 144.081 30.9256C144.081 30.9256 144.851 30.4175 147.161 29.3287Z" fill="#FB6EB0"/>
<path fill-rule="evenodd" clip-rule="evenodd" d="M192.973 17.1453C195.913 15.7662 193.253 13.6613 192.133 15.2581C192.343 13.2984 188.983 13.0081 190.313 16.0565C190.873 17.4356 191.083 18.0162 191.083 18.0888C191.083 18.0888 191.573 17.7985 192.973 17.1453Z" fill="#FB6EB0"/>
<path fill-rule="evenodd" clip-rule="evenodd" d="M168.58 11.6204C171.52 10.2413 168.86 8.13643 167.74 9.73323C167.95 7.77352 164.59 7.48319 165.92 10.5316C166.48 11.9107 166.62 12.4913 166.69 12.5639C166.69 12.5639 167.18 12.2736 168.65 11.6204H168.58Z" fill="#FB6EB0"/>
<path fill-rule="evenodd" clip-rule="evenodd" d="M187.552 55.2407C190.912 53.7165 187.832 51.3213 186.642 53.1359C186.852 50.9584 183.072 50.5955 184.542 54.0794C185.172 55.6036 185.382 56.2569 185.382 56.402C185.382 56.402 185.942 56.0391 187.552 55.3133V55.2407Z" fill="#FB6EB0"/>
<path fill-rule="evenodd" clip-rule="evenodd" d="M181.351 42.9316C184.711 44.4558 181.631 46.8511 180.441 45.0365C180.651 47.214 176.871 47.5769 178.341 44.0929C178.971 42.5687 179.181 41.9155 179.181 41.7703C179.181 41.7703 179.741 42.1332 181.351 42.859V42.9316Z" fill="#FB6EB0"/>
<path fill-rule="evenodd" clip-rule="evenodd" d="M172.351 47.6786C175.711 46.1543 172.631 43.7591 171.441 45.5011C171.651 43.3236 167.871 42.9607 169.341 46.4447C169.971 47.9689 170.181 48.6221 170.181 48.7673C170.181 48.7673 170.741 48.4044 172.351 47.6786Z" fill="#FB6EB0"/>
<path fill-rule="evenodd" clip-rule="evenodd" d="M142.473 14.16C145.833 12.6358 142.753 10.2406 141.493 11.9825C141.773 9.80508 137.923 9.44217 139.393 12.9261C140.023 14.4503 140.233 15.1036 140.233 15.2487C140.233 15.2487 140.793 14.8858 142.403 14.16H142.473Z" fill="#FB6EB0"/>
<path fill-rule="evenodd" clip-rule="evenodd" d="M133.42 19.7617C136.78 18.2375 133.7 15.8423 132.44 17.6569C132.65 15.4794 128.87 15.1165 130.34 18.6004C130.97 20.1246 131.18 20.7779 131.18 20.923C131.18 20.923 131.74 20.5601 133.35 19.8343L133.42 19.7617Z" fill="#FB6EB0"/>
<path fill-rule="evenodd" clip-rule="evenodd" d="M144.362 57.2741C148.702 55.3144 144.712 52.266 143.172 54.516C143.452 51.7579 138.552 51.2498 140.512 55.7499C141.352 57.7096 141.562 58.5806 141.632 58.7258C141.632 58.7258 142.332 58.2903 144.432 57.2741H144.362Z" fill="#FB6EB0"/>
<path fill-rule="evenodd" clip-rule="evenodd" d="M126.79 48.4191C128.05 43.7012 123.29 44.9351 123.99 47.6207C122.1 45.5884 118.6 49.2175 123.15 50.5239C125.11 51.1046 125.95 51.4675 126.09 51.5401C126.09 51.5401 126.16 50.6691 126.79 48.4191Z" fill="#FB6EB0"/>
<path fill-rule="evenodd" clip-rule="evenodd" d="M164.94 1.67619C170.12 1.31328 167.11 -3.40454 164.66 -1.66258C165.99 -4.42069 161.09 -6.8159 161.44 -1.44483C161.58 0.877791 161.51 1.89394 161.51 2.0391C161.51 2.0391 162.35 1.82136 164.87 1.67619H164.94Z" fill="#FB6EB0"/>
<path fill-rule="evenodd" clip-rule="evenodd" d="M220.523 46.0954C226.613 43.2647 221.013 38.9824 218.773 42.176C219.193 38.2565 212.263 37.6033 214.993 43.9179C216.183 46.676 216.533 47.9099 216.603 48.1277C216.603 48.1277 217.583 47.4744 220.523 46.0954Z" fill="#FB6EB0"/>
<path fill-rule="evenodd" clip-rule="evenodd" d="M167.319 20.5462C173.409 17.7155 167.809 13.4332 165.569 16.6994C165.989 12.78 159.059 12.1267 161.789 18.4414C162.979 21.1995 163.329 22.4334 163.399 22.6511C163.399 22.6511 164.379 21.9979 167.319 20.6188V20.5462Z" fill="#FB6EB0"/>
<path fill-rule="evenodd" clip-rule="evenodd" d="M115.169 15.487C121.259 12.6563 115.589 8.37395 113.419 11.5676C113.839 7.64814 106.909 6.9949 109.639 13.3095C110.829 16.0676 111.179 17.3015 111.249 17.5193C111.249 17.5193 112.229 16.866 115.169 15.487Z" fill="#FB6EB0"/>
<path fill-rule="evenodd" clip-rule="evenodd" d="M124.598 57.2173C129.848 50.685 121.378 49.0882 120.678 53.8786C119.068 49.3059 111.088 52.4995 117.388 57.8706C120.188 60.2658 121.168 61.4271 121.378 61.6448C121.378 61.6448 122.078 60.3384 124.668 57.1448L124.598 57.2173Z" fill="#FB6EB0"/>
<path fill-rule="evenodd" clip-rule="evenodd" d="M125.249 16.8429C123.639 11.0364 119.369 15.5365 121.819 17.9317C118.599 17.0607 117.199 23.2302 122.799 21.4882C125.249 20.7624 126.299 20.6172 126.509 20.6172C126.509 20.6172 126.089 19.6736 125.249 16.8429Z" fill="#FF3C4B"/>
<path fill-rule="evenodd" clip-rule="evenodd" d="M107.258 18.8772C105.998 14.3771 102.638 17.8611 104.598 19.7482C102.078 19.095 101.028 23.8854 105.368 22.5789C107.258 21.9983 108.098 21.9257 108.238 21.8531C108.238 21.8531 107.888 21.1273 107.258 18.8772Z" fill="#FF3C4B"/>
<path fill-rule="evenodd" clip-rule="evenodd" d="M155.768 -2.24566C150.938 -4.20538 151.778 1.38343 154.648 0.875361C152.338 2.76249 155.768 7.11741 157.658 2.10925C158.428 -0.0682046 158.918 -0.939189 158.988 -1.08435C158.988 -1.08435 158.148 -1.3021 155.768 -2.17308V-2.24566Z" fill="#FF3C4B"/>
<path fill-rule="evenodd" clip-rule="evenodd" d="M227.8 32.3769C222.97 30.4172 223.81 36.006 226.68 35.4979C224.37 37.3851 227.8 41.74 229.62 36.7318C230.46 34.5544 230.88 33.6834 231.02 33.5382C231.02 33.5382 230.18 33.3205 227.8 32.4495V32.3769Z" fill="#FF3C4B"/>
<path fill-rule="evenodd" clip-rule="evenodd" d="M194.618 -4.27633C188.948 -6.52637 189.858 0.0060091 193.288 -0.647229C190.558 1.60281 194.618 6.68355 196.788 0.804413C197.698 -1.80854 198.258 -2.75211 198.398 -2.96985C198.398 -2.96985 197.348 -3.1876 194.618 -4.27633Z" fill="#FF3C4B"/>
<path fill-rule="evenodd" clip-rule="evenodd" d="M164.1 45.9496C159.27 43.9899 160.11 49.5788 162.98 49.0707C160.67 50.9578 164.1 55.3127 165.92 50.3046C166.76 48.1271 167.18 47.2561 167.32 47.111C167.32 47.111 166.48 46.8932 164.1 46.0222V45.9496Z" fill="#FF3C4B"/>
<path fill-rule="evenodd" clip-rule="evenodd" d="M146.389 46.893C141.559 44.9333 142.329 50.5221 145.269 50.014C142.959 51.9012 146.389 56.2561 148.209 51.2479C149.049 49.0705 149.469 48.1995 149.609 48.0543C149.609 48.0543 148.769 47.8366 146.389 46.9656V46.893Z" fill="#FF3C4B"/>
<path fill-rule="evenodd" clip-rule="evenodd" d="M152.899 54.4414C151.569 51.3203 149.539 54.151 151.079 55.3123C149.189 55.0946 148.909 58.5785 151.849 57.1995C153.179 56.6188 153.739 56.4011 153.809 56.4011C153.809 56.4011 153.529 55.893 152.899 54.4414Z" fill="#FF3C4B"/>
<path fill-rule="evenodd" clip-rule="evenodd" d="M179.919 59.5233C178.449 56.0394 176.139 59.233 177.819 60.4669C175.719 60.1765 175.369 64.1686 178.729 62.6443C180.199 61.9911 180.829 61.7734 180.969 61.7734C180.969 61.7734 180.619 61.1927 179.919 59.5233Z" fill="#FF3C4B"/>
<path fill-rule="evenodd" clip-rule="evenodd" d="M188.389 53.0668C179.869 49.8179 187.04 43.234 190.26 47.4157C189.204 41.9751 198.612 40.3792 195.584 49.4234C194.292 53.378 193.885 55.0621 193.91 55.4282C193.91 55.4282 192.471 54.6122 188.389 53.0668Z" fill="#FF3C4B"/>
<path fill-rule="evenodd" clip-rule="evenodd" d="M198.698 58.9017C197.228 55.4178 194.918 58.6114 196.598 59.8453C194.498 59.555 194.148 63.547 197.508 62.0228C198.978 61.3695 199.608 61.1518 199.748 61.1518C199.748 61.1518 199.398 60.5711 198.698 58.9017Z" fill="#FF3C4B"/>
<path fill-rule="evenodd" clip-rule="evenodd" d="M217.649 17.9337C216.179 14.4498 213.869 17.6434 215.619 18.9499C213.519 18.6596 213.169 22.6516 216.459 21.1274C217.929 20.4741 218.559 20.2564 218.699 20.2564C218.699 20.2564 218.349 19.6757 217.649 18.0063V17.9337Z" fill="#FF3C4B"/>
<path fill-rule="evenodd" clip-rule="evenodd" d="M104.872 46.9778C102.842 42.3325 99.8318 46.6149 102.142 48.2842C99.3418 47.9213 98.8518 53.2924 103.332 51.1875C105.292 50.3165 106.202 50.0262 106.342 49.9536C106.342 49.9536 105.852 49.2278 104.872 46.9052V46.9778Z" fill="#FF3C4B"/>
<path fill-rule="evenodd" clip-rule="evenodd" d="M203.204 12.3611C198.724 10.6192 199.494 15.7725 202.154 15.2644C199.984 17.0789 203.204 21.071 204.884 16.3531C205.654 14.3208 206.074 13.5224 206.144 13.3773C206.144 13.3773 205.304 13.2321 203.134 12.3611H203.204Z" fill="#FF3C4B"/>
<path fill-rule="evenodd" clip-rule="evenodd" d="M209.808 52.1924C208.828 47.3294 205.048 50.7408 206.938 52.8456C204.348 51.9747 202.808 56.9102 207.498 55.8941C209.528 55.4586 210.438 55.386 210.578 55.386C210.578 55.386 210.298 54.5876 209.808 52.1924Z" fill="#FF3C4B"/>
<path fill-rule="evenodd" clip-rule="evenodd" d="M185.029 13.5785C183.209 9.44136 180.479 13.2882 182.579 14.8124C180.059 14.5221 179.639 19.3125 183.699 17.4254C185.449 16.5544 186.219 16.3366 186.359 16.3366C186.359 16.3366 185.939 15.6834 185.029 13.6511V13.5785Z" fill="#FF3C4B"/>
<path fill-rule="evenodd" clip-rule="evenodd" d="M204.012 8.00988C208.462 8.80083 206.786 4.39156 204.351 5.2877C205.995 3.35581 202.249 0.340359 201.557 4.76367C201.306 6.70231 201.059 7.4632 200.981 7.5795C200.981 7.5795 201.757 7.59421 203.952 7.96948L204.012 8.00988Z" fill="#FF3C4B"/>
<path fill-rule="evenodd" clip-rule="evenodd" d="M159.201 9.07778C158.781 4.21479 154.721 7.11807 156.261 9.36811C153.811 8.2068 151.781 12.852 156.471 12.4166C158.501 12.1988 159.411 12.2714 159.551 12.2714C159.551 12.2714 159.341 11.473 159.131 9.07778H159.201Z" fill="#FF3C4B"/>
<path fill-rule="evenodd" clip-rule="evenodd" d="M171.939 -1.15647C169.209 -7.47111 165.079 -1.66455 168.229 0.658076C164.449 0.222585 163.819 7.48078 169.909 4.5775C172.569 3.34361 173.689 2.9807 173.969 2.90812C173.969 2.90812 173.339 1.89197 172.009 -1.15647H171.939Z" fill="#FF3C4B"/>
<path fill-rule="evenodd" clip-rule="evenodd" d="M218.56 -1.51878C215.83 -7.83341 211.7 -2.02685 214.85 0.295771C211.07 -0.139721 210.44 7.04589 216.46 4.2152C219.12 2.9813 220.31 2.61839 220.52 2.54581C220.52 2.54581 219.89 1.52966 218.49 -1.51878H218.56Z" fill="#FF3C4B"/>
<path fill-rule="evenodd" clip-rule="evenodd" d="M128.821 6.39274C124.831 3.48946 124.341 8.71536 127.141 9.00569C124.621 10.2396 126.791 14.9574 129.591 10.8202C130.781 9.00569 131.411 8.35245 131.551 8.20729C131.551 8.20729 130.781 7.84438 128.821 6.39274Z" fill="#FF3C4B"/>
<path fill-rule="evenodd" clip-rule="evenodd" d="M110.66 27.2617C106.11 27.044 108.28 31.4715 110.66 30.165C109.26 32.415 113.32 35.028 113.46 30.3101C113.53 28.2053 113.74 27.4069 113.74 27.2617C113.74 27.2617 112.97 27.3343 110.73 27.2617H110.66Z" fill="#FF3C4B"/>
<path fill-rule="evenodd" clip-rule="evenodd" d="M218.46 29.3293C224.55 26.4986 218.88 22.2162 216.71 25.4098C217.13 21.4904 210.2 20.8372 212.93 27.1518C214.12 29.9099 214.47 31.1438 214.54 31.3616C214.54 31.3616 215.52 30.7083 218.46 29.3293Z" fill="#FB6EB0"/>
<path fill-rule="evenodd" clip-rule="evenodd" d="M216.992 52.6285C222.242 46.0961 213.772 44.4993 213.072 49.2897C211.462 44.717 203.482 47.9106 209.782 53.2817C212.582 55.6769 213.562 56.8382 213.772 57.056C213.772 57.056 214.472 55.7495 217.062 52.5559L216.992 52.6285Z" fill="#FB6EB0"/>
<path fill-rule="evenodd" clip-rule="evenodd" d="M227.42 21.2712C225.81 15.4646 221.54 19.9647 223.99 22.3599C220.77 21.4889 219.37 27.6584 224.97 25.9164C227.42 25.1906 228.47 25.0454 228.68 25.0454C228.68 25.0454 228.26 24.1019 227.42 21.2712Z" fill="#FF3C4B"/>
<path fill-rule="evenodd" clip-rule="evenodd" d="M214.258 18.8772C212.998 14.3771 209.638 17.8611 211.598 19.7482C209.078 19.095 208.028 23.8854 212.368 22.5789C214.258 21.9983 215.098 21.9257 215.238 21.8531C215.238 21.8531 214.888 21.1273 214.258 18.8772Z" fill="#FF3C4B"/>
<path fill-rule="evenodd" clip-rule="evenodd" d="M227.069 50.5217C225.039 45.8765 222.029 50.1588 224.339 51.8282C221.539 51.4653 221.049 56.8363 225.529 54.7315C227.489 53.8605 228.399 53.5701 228.539 53.4976C228.539 53.4976 228.049 52.7717 227.069 50.4491V50.5217Z" fill="#FF3C4B"/>
<path fill-rule="evenodd" clip-rule="evenodd" d="M215.518 52.7722C214.818 47.3286 210.408 50.7399 212.298 53.2803C209.498 52.0464 207.398 57.4175 212.648 56.6916C214.958 56.4013 215.938 56.4013 216.148 56.4013C216.148 56.4013 215.868 55.5303 215.518 52.8448V52.7722Z" fill="#FF3C4B"/>
<path fill-rule="evenodd" clip-rule="evenodd" d="M211.318 25.8442C206.768 25.6265 208.938 30.054 211.318 28.7475C209.918 30.9975 213.978 33.6105 214.118 28.8927C214.188 26.7878 214.398 25.9894 214.398 25.8442C214.398 25.8442 213.628 25.9168 211.388 25.8442H211.318Z" fill="#FF3C4B"/>
<path fill-rule="evenodd" clip-rule="evenodd" d="M224.199 36.6587C217.899 31.2151 216.359 39.9975 220.979 40.7233C216.569 42.3927 219.579 50.6671 224.829 44.1347C227.139 41.304 228.259 40.2152 228.469 40.0701C228.469 40.0701 227.209 39.3443 224.129 36.6587H224.199Z" fill="#FF3C4B"/>
<path fill-rule="evenodd" clip-rule="evenodd" d="M142.475 18.4184C137.645 16.4587 138.415 22.0475 141.355 21.5394C139.045 23.4266 142.475 27.7815 144.295 22.7733C145.135 20.5959 145.555 19.7249 145.695 19.5797C145.695 19.5797 144.855 19.362 142.475 18.491V18.4184Z" fill="#FF3C4B"/>
</g>
<defs>
<linearGradient id="paint0_linear_189_891" x1="111.5" y1="0.0932617" x2="111.5" y2="56.7475" gradientUnits="userSpaceOnUse">
<stop stop-color="#E200E6"/>
<stop offset="1" stop-color="#9A002E"/>
</linearGradient>
<clipPath id="clip0_189_891">
<rect y="0.0932617" width="223" height="56.6543" rx="4" fill="white"/>
</clipPath>
</defs>
</svg>
