<svg width="40" height="40" viewBox="0 0 40 40" fill="none" xmlns="http://www.w3.org/2000/svg">
<path fill-rule="evenodd" clip-rule="evenodd" d="M19.5624 2.63028C19.8259 2.75093 20.1287 2.75135 20.3926 2.63144L25.3437 0.380869C25.8173 0.165606 26.3768 0.349375 26.6305 0.803508L29.3683 5.70391C29.5053 5.94913 29.7391 6.12542 30.0125 6.18967L35.3344 7.44017C35.8201 7.5543 36.1474 8.00906 36.1013 8.50591L35.5691 14.2508C35.5444 14.5164 35.627 14.7809 35.7984 14.9854L39.4601 19.3542C39.7723 19.7266 39.7715 20.2694 39.4584 20.6409L35.8154 24.9641C35.6435 25.1681 35.5603 25.4322 35.5841 25.6978L36.1039 31.4941C36.1485 31.991 35.82 32.4447 35.3341 32.5575L30.0517 33.7841C29.7782 33.8476 29.544 34.0232 29.4063 34.2679L26.633 39.1976C26.3779 39.6511 25.8177 39.8331 25.3447 39.6163L20.438 37.3667C20.1743 37.2458 19.8711 37.2454 19.607 37.3656L14.6565 39.6186C14.1828 39.8341 13.6231 39.6504 13.3693 39.1961L10.6317 34.2961C10.4947 34.0509 10.2609 33.8746 9.98745 33.8103L4.66561 32.5598C4.17988 32.4457 3.8526 31.991 3.89862 31.4941L4.43096 25.7458C4.45556 25.4802 4.37299 25.2157 4.20162 25.0112L0.539851 20.6424C0.227742 20.27 0.228461 19.7272 0.541555 19.3556L4.18458 15.0325C4.35645 14.8285 4.43972 14.5644 4.41588 14.2987L3.89612 8.5059C3.85154 8.00902 4.17999 7.55529 4.66594 7.44245L9.94832 6.21588C10.2218 6.15237 10.456 5.97681 10.5937 5.7321L13.3672 0.80204C13.6222 0.348716 14.1821 0.166581 14.6551 0.383134L19.5624 2.63028Z" fill="#13D960"/>
</svg>
