<svg width="164" height="24" viewBox="0 0 164 24" fill="none" xmlns="http://www.w3.org/2000/svg">
<path d="M19.6003 23.4906L16.0276 10.899L12.4581 23.4906H6.80217L0.445312 1.05408H6.09802L9.91408 16.4478H10.0504L14.1066 1.05408H17.9486L22.008 16.4478H22.141L25.9571 1.05408H31.5839L25.227 23.4906H19.6003Z" fill="#04B851"/>
<path d="M32.7991 23.4906V0.101562H37.5886V11.0067H37.6438C38.8874 9.75647 40.2121 9.13097 41.6188 9.13097C42.3043 9.13097 42.9849 9.22231 43.6599 9.40498C44.3365 9.58603 44.9855 9.86657 45.6069 10.2466C46.2299 10.6274 46.7345 11.1665 47.1223 11.8646C47.5117 12.5627 47.7064 13.3741 47.7064 14.2981V23.4906H42.9168V15.6029C42.9168 14.8787 42.6864 14.2451 42.2256 13.7011C41.7665 13.158 41.1678 12.8856 40.4279 12.8856C39.7075 12.8856 39.0537 13.1661 38.468 13.7272C37.8815 14.2883 37.5886 14.9138 37.5886 15.6029V23.4906H32.7991Z" fill="#04B851"/>
<path d="M51.6282 21.765C50.3302 20.3411 49.6812 18.5959 49.6812 16.5293C49.6812 14.4612 50.3302 12.7119 51.6282 11.2807C52.9261 9.84781 54.5762 9.13097 56.5799 9.13097C58.4182 9.13097 59.9328 9.71162 61.1229 10.8729V9.53873H65.9124V23.4906H61.178V21.9118H61.1229C59.9328 23.2362 58.4182 23.8984 56.5799 23.8984C54.5762 23.8984 52.9261 23.1872 51.6282 21.765ZM55.6973 14.1643C55.0759 14.7801 54.766 15.5687 54.766 16.5293C54.766 17.4908 55.0629 18.2745 55.6584 18.8813C56.253 19.488 57.0383 19.7914 58.0142 19.7914C58.9504 19.7914 59.7211 19.484 60.3246 18.8682C60.9298 18.2509 61.2332 17.4713 61.2332 16.5293C61.2332 15.5687 60.9217 14.7801 60.2987 14.1643C59.6756 13.547 58.9139 13.2379 58.0142 13.2379C57.0926 13.2379 56.3204 13.547 55.6973 14.1643Z" fill="#04B851"/>
<path d="M69.9686 9.53873V4.34551H74.7581V9.53873H77.6786V13.2118H74.7581V17.645C74.7581 18.9302 75.1183 19.5728 75.8387 19.5728C76.0204 19.5728 76.2094 19.537 76.4066 19.4652C76.6053 19.3934 76.7587 19.3209 76.8674 19.2466L77.0296 19.139L78.2205 23.0274C77.1927 23.608 76.0204 23.8984 74.703 23.8984C73.8009 23.8984 73.0253 23.7393 72.3764 23.4221C71.7274 23.1049 71.2357 22.6783 70.9031 22.1434C70.5697 21.6084 70.3304 21.0465 70.186 20.4569C70.0408 19.8681 69.9686 19.2385 69.9686 18.5681V13.2118H67.9665V9.53873H69.9686Z" fill="#04B851"/>
<path d="M85.8754 9.13097C86.6688 9.13097 87.4533 9.22231 88.228 9.40498C89.0043 9.58603 89.5819 9.76626 89.9608 9.94648L90.5287 10.2205L88.9613 13.3749C87.8792 12.7943 86.8505 12.5039 85.8754 12.5039C85.3343 12.5039 84.9514 12.5627 84.7267 12.6801C84.5012 12.7975 84.3892 13.0194 84.3892 13.3456C84.3892 13.4198 84.3973 13.4924 84.4152 13.5641C84.4346 13.6359 84.4711 13.7044 84.5255 13.7696C84.579 13.8332 84.6277 13.8871 84.6715 13.9327C84.7169 13.9768 84.7932 14.0257 84.9019 14.0795C85.0098 14.1342 85.095 14.1758 85.1583 14.2035C85.2232 14.2296 85.327 14.2704 85.4698 14.3242C85.6142 14.3788 85.7229 14.4204 85.7943 14.4481C85.8673 14.4742 85.9898 14.515 86.1609 14.5688C86.3313 14.6235 86.4627 14.6602 86.5536 14.6797C87.1117 14.8428 87.5985 15.0247 88.0138 15.2245C88.4292 15.4227 88.8656 15.6942 89.3248 16.04C89.7856 16.3842 90.1409 16.8188 90.3924 17.3449C90.6455 17.8717 90.772 18.4695 90.772 19.139C90.772 22.3122 88.5801 23.8984 84.1978 23.8984C83.2064 23.8984 82.2646 23.745 81.3714 23.4384C80.4799 23.1301 79.8349 22.8211 79.4374 22.512L78.8436 22.0227L80.7906 18.7312C80.935 18.8576 81.1248 19.0077 81.3584 19.1814C81.5921 19.3535 82.0147 19.5892 82.6272 19.8893C83.2413 20.1877 83.7743 20.3362 84.227 20.3362C85.2175 20.3362 85.7131 20.0002 85.7131 19.3282C85.7131 19.0216 85.5866 18.7826 85.3335 18.6105C85.082 18.4368 84.6537 18.2411 84.0485 18.0234C83.4449 17.8064 82.972 17.6075 82.6304 17.4264C81.7649 16.9722 81.0794 16.46 80.5731 15.89C80.0686 15.3183 79.8171 14.5615 79.8171 13.6196C79.8171 12.2038 80.3622 11.1029 81.4525 10.3151C82.5445 9.52568 84.0193 9.13097 85.8754 9.13097Z" fill="#04B851"/>
<path d="M105.922 1.05408V5.54269H98.2408V10.0019H105.597V14.4873H98.2408V19.002H105.922V23.4906H93.1528V1.05408H105.922Z" fill="#04B851"/>
<path d="M109.791 21.765C108.493 20.3411 107.844 18.5959 107.844 16.5293C107.844 14.4612 108.493 12.7119 109.791 11.2807C111.089 9.84781 112.739 9.13097 114.742 9.13097C116.581 9.13097 118.095 9.71162 119.285 10.8729V9.53873H124.075V23.4906H119.341V21.9118H119.285C118.095 23.2362 116.581 23.8984 114.742 23.8984C112.739 23.8984 111.089 23.1872 109.791 21.765ZM113.86 14.1643C113.238 14.7801 112.928 15.5687 112.928 16.5293C112.928 17.4908 113.225 18.2745 113.821 18.8813C114.415 19.488 115.201 19.7914 116.177 19.7914C117.113 19.7914 117.884 19.484 118.487 18.8682C119.092 18.2509 119.396 17.4713 119.396 16.5293C119.396 15.5687 119.084 14.7801 118.461 14.1643C117.838 13.547 117.076 13.2379 116.177 13.2379C115.255 13.2379 114.483 13.547 113.86 14.1643Z" fill="#04B851"/>
<path d="M133.352 9.13097C134.146 9.13097 134.93 9.22231 135.705 9.40498C136.481 9.58603 137.059 9.76626 137.438 9.94648L138.005 10.2205L136.438 13.3749C135.356 12.7943 134.327 12.5039 133.352 12.5039C132.811 12.5039 132.428 12.5627 132.203 12.6801C131.978 12.7975 131.866 13.0194 131.866 13.3456C131.866 13.4198 131.874 13.4924 131.892 13.5641C131.911 13.6359 131.948 13.7044 132.002 13.7696C132.056 13.8332 132.105 13.8871 132.148 13.9327C132.194 13.9768 132.27 14.0257 132.379 14.0795C132.487 14.1342 132.572 14.1758 132.635 14.2035C132.7 14.2296 132.804 14.2704 132.947 14.3242C133.091 14.3788 133.2 14.4204 133.271 14.4481C133.344 14.4742 133.467 14.515 133.638 14.5688C133.808 14.6235 133.94 14.6602 134.03 14.6797C134.589 14.8428 135.075 15.0247 135.491 15.2245C135.906 15.4227 136.342 15.6942 136.802 16.04C137.262 16.3842 137.618 16.8188 137.869 17.3449C138.122 17.8717 138.249 18.4695 138.249 19.139C138.249 22.3122 136.057 23.8984 131.675 23.8984C130.683 23.8984 129.741 23.745 128.848 23.4384C127.957 23.1301 127.312 22.8211 126.914 22.512L126.32 22.0227L128.267 18.7312C128.412 18.8576 128.602 19.0077 128.835 19.1814C129.069 19.3535 129.492 19.5892 130.104 19.8893C130.718 20.1877 131.251 20.3362 131.704 20.3362C132.694 20.3362 133.19 20.0002 133.19 19.3282C133.19 19.0216 133.063 18.7826 132.81 18.6105C132.559 18.4368 132.13 18.2411 131.525 18.0234C130.922 17.8064 130.449 17.6075 130.107 17.4264C129.242 16.9722 128.556 16.46 128.05 15.89C127.545 15.3183 127.294 14.5615 127.294 13.6196C127.294 12.2038 127.839 11.1029 128.929 10.3151C130.021 9.52568 131.496 9.13097 133.352 9.13097Z" fill="#04B851"/>
<path d="M154.67 17.1818H144.608C144.608 18.1604 144.923 18.8862 145.552 19.3576C146.183 19.8297 146.87 20.0654 147.609 20.0654C148.386 20.0654 148.999 19.961 149.449 19.7523C149.901 19.5435 150.415 19.1308 150.991 18.5127L154.453 20.2546C153.01 22.684 150.612 23.8984 147.259 23.8984C145.167 23.8984 143.372 23.1774 141.876 21.7356C140.378 20.2938 139.63 18.5583 139.63 16.5293C139.63 14.4987 140.378 12.7576 141.876 11.3068C143.372 9.85678 145.167 9.13097 147.259 9.13097C149.459 9.13097 151.248 9.77033 152.626 11.0491C154.006 12.3278 154.696 14.1546 154.696 16.5293C154.696 16.8555 154.687 17.0733 154.67 17.1818ZM144.741 14.5166H150.017C149.908 13.7908 149.625 13.233 149.164 12.8432C148.705 12.4542 148.114 12.2593 147.392 12.2593C146.6 12.2593 145.969 12.4681 145.5 12.8856C145.031 13.3015 144.777 13.8447 144.741 14.5166Z" fill="#04B851"/>
<path d="M160.028 17.6711C160.893 17.6711 161.628 17.9744 162.231 18.5812C162.835 19.1879 163.137 19.9276 163.137 20.7994C163.137 21.65 162.835 22.3799 162.231 22.9882C161.628 23.595 160.893 23.8983 160.028 23.8983C159.179 23.8983 158.453 23.595 157.847 22.9882C157.244 22.3799 156.942 21.65 156.942 20.7994C156.942 19.9276 157.244 19.1879 157.847 18.5812C158.453 17.9744 159.179 17.6711 160.028 17.6711Z" fill="#04B851"/>
</svg>
