<svg width="50" height="50" viewBox="0 0 50 50" fill="none" xmlns="http://www.w3.org/2000/svg">
<path d="M45.5941 7.96246C42.7466 4.56945 38.7581 2.29425 34.4252 1.13688C29.3382 -0.231461 23.8323 0.03957 18.7346 1.21746C13.7192 2.38509 9.05117 4.63977 5.48159 8.27451C1.88001 11.9488 0.00761841 16.9006 0.216339 21.933C0.414395 26.8658 2.46656 31.4967 5.35666 35.5124C5.95235 36.3489 6.5907 37.1532 7.25038 37.9385C6.60137 41.2304 5.93102 44.5326 5.02149 47.763C4.93769 47.9549 4.88437 48.1556 4.8539 48.3563C4.79144 48.6083 4.81124 48.8808 4.9057 49.1123C4.9057 49.1225 4.9057 49.1225 4.91637 49.1328C4.92703 49.1518 4.93769 49.1826 4.94836 49.2031C4.9575 49.2324 4.97883 49.2529 4.98949 49.2734C5.00016 49.2837 5.00016 49.2925 5.01082 49.3027C5.02149 49.313 5.03215 49.3335 5.04129 49.3438C5.23021 49.5957 5.52272 49.7364 5.92188 49.6455C6.14127 49.5957 6.33932 49.5049 6.51757 49.3731C8.64287 48.2259 10.6219 46.8371 12.8188 45.7998C13.3018 45.5684 13.8457 45.2461 14.3789 45.186C14.9334 45.1259 15.5733 45.397 16.1172 45.5186C17.4366 45.8306 18.7864 46.0123 20.1362 46.1222C22.7536 46.3434 25.4228 46.4752 28.0509 46.4342C30.7094 46.3946 33.3359 46.0621 35.8177 45.0849C45.3853 41.3007 49.6664 30.3482 49.8233 21.0584C49.8751 16.4069 48.6822 11.6368 45.5941 7.96246ZM46.9546 22.9204C46.9134 24.2082 46.819 25.1048 46.5996 26.4336C46.4945 27.0577 46.3695 27.692 46.2324 28.3059C46.1699 28.5872 46.0968 28.8787 46.0237 29.1615C45.981 29.3329 45.9399 29.5028 45.8881 29.6742C45.8774 29.724 45.751 30.168 45.751 30.1577C45.3853 31.3649 44.9344 32.553 44.4012 33.7001C44.3905 33.7309 44.2122 34.0737 44.2549 34.0122C44.2229 34.0737 44.1909 34.1338 44.1604 34.1939C43.9929 34.5059 43.8253 34.818 43.647 35.1198C43.5008 35.3717 43.3438 35.6237 43.1869 35.8757C43.0925 36.0266 42.998 36.1673 42.8929 36.3182C42.8624 36.368 42.7268 36.5496 42.6948 36.5994C42.381 37.0228 42.0458 37.436 41.6893 37.8374C41.5126 38.0396 41.3343 38.2403 41.1454 38.4322C41.1241 38.4527 40.9778 38.6036 40.926 38.6534C40.8209 38.7545 40.7158 38.8541 40.6122 38.945C40.1932 39.3273 39.7636 39.6907 39.3142 40.032C39.1877 40.1331 39.0521 40.2239 38.9257 40.325C38.9165 40.3338 38.6849 40.4847 38.6651 40.5052C38.4244 40.6664 38.173 40.8173 37.9323 40.9579C36.843 41.582 35.932 41.9746 34.8122 42.2969C32.0805 43.0822 29.2118 43.072 26.3857 42.9621C23.4971 42.8507 20.5659 42.7907 17.7397 42.1563C17.0801 42.0157 16.4204 41.7534 15.7394 41.7432C14.8603 41.7329 14.033 42.1255 13.2484 42.4786C12.0037 43.0221 10.8306 43.7063 9.66819 44.4007C9.19743 44.6835 8.73733 44.9648 8.26656 45.2461C8.90491 42.7306 9.40767 40.1727 9.93023 37.6264C10.0034 37.2851 10.0872 36.932 10.1405 36.5892C10.2547 35.9255 10.0567 35.5432 9.64839 35.0494C9.22942 34.5469 8.82112 34.043 8.42348 33.5302C6.85275 31.466 5.46026 29.2421 4.4974 26.8555C3.51321 24.4001 2.96932 21.8935 3.03178 19.2857C3.04245 18.6425 3.07444 18.31 3.14757 17.7665C3.24203 17.1013 3.36696 16.4479 3.54521 15.7931C3.55587 15.7535 3.63966 15.4708 3.65033 15.4605C3.69146 15.3506 3.72346 15.2393 3.76459 15.1294C3.88038 14.7968 4.01597 14.4643 4.16223 14.142C4.20489 14.0423 4.25669 13.9515 4.29934 13.8504C4.30849 13.8299 4.31915 13.8109 4.32981 13.7904C4.34048 13.7698 4.35114 13.7493 4.36181 13.7303C4.51873 13.4475 4.66499 13.1663 4.83257 12.885C5.00016 12.6125 5.17841 12.3502 5.35666 12.0792C5.35666 12.0792 5.35666 12.0895 5.34599 12.0895L5.35666 12.0792C5.35666 12.0792 5.35666 12.0689 5.3658 12.0689C5.38713 12.0279 5.44959 11.9679 5.47092 11.9386C5.53339 11.858 5.58671 11.7774 5.64917 11.7071C6.03614 11.2134 6.44444 10.7504 6.88474 10.2977C6.91521 10.267 6.98834 10.1966 7.031 10.1571C7.12545 10.0662 7.21991 9.98567 7.31285 9.89484C7.51242 9.71318 7.72115 9.53298 7.93139 9.35131C8.41282 8.94843 8.91558 8.56606 9.42748 8.20419C9.47013 8.17343 9.5844 8.10311 9.61639 8.0826C9.73218 8.01227 9.84644 7.9317 9.96223 7.86138C10.2441 7.67971 10.5381 7.5083 10.8306 7.34861C11.4476 7.0058 12.0769 6.68349 12.7259 6.39195C13.9401 5.83817 15.1543 5.41477 16.463 5.04265C21.8745 3.50291 27.7995 3.14104 33.2734 4.65003C37.7328 5.87772 41.8782 8.60561 44.3585 12.4308C45.6672 14.4452 46.4945 16.9109 46.787 19.1553C46.9454 20.4035 46.9972 21.6722 46.9546 22.9204ZM37.7647 24.0075C34.3308 24.4294 30.688 24.6521 27.1809 24.803C27.1916 26.1713 27.2129 27.6305 27.2343 28.889C27.2541 30.943 27.2129 32.9457 27.0773 34.9996C27.0133 35.9153 23.5702 35.3615 23.4971 34.3755C23.424 33.4086 23.4651 32.4226 23.4438 31.4455C23.424 30.5401 23.4133 29.6244 23.4133 28.7176C23.424 27.4606 23.4438 26.2021 23.4758 24.9436C22.2722 24.9832 21.0579 25.0242 19.8544 25.074C17.886 25.1444 15.4682 25.1444 13.8761 25.0638C13.1433 24.9436 12.8097 24.3401 12.7365 23.6544C12.6726 23.1314 12.8508 21.8231 13.5516 21.6415C15.52 21.139 17.5295 21.3602 19.5603 21.2591C20.9117 21.199 22.2509 21.1287 23.6007 21.0686C23.6327 20.0417 23.6647 19.0249 23.6845 17.9979C23.7058 17.0017 23.7485 16.004 23.7789 15.0078C23.8216 13.72 23.8323 12.3913 24.1659 11.143C24.3243 10.5482 24.8896 10.4882 25.5279 10.579C26.2287 10.6801 26.7726 10.7094 26.9204 11.2939C27.1916 12.4206 27.2449 14.0218 27.2647 15.169C27.2861 16.1564 27.2967 17.1424 27.2967 18.1283C27.2967 19.1245 27.2647 20.0006 27.2343 20.887C30.6469 20.7361 34.0489 20.5954 37.4509 20.3933C38.4549 20.3332 38.6331 21.158 38.6758 21.8832C38.7169 22.6582 38.4031 23.9269 37.7647 24.0075Z" fill="white"/>
</svg>