<svg width="36" height="34" viewBox="0 0 36 34" fill="none" xmlns="http://www.w3.org/2000/svg">
<path d="M18.6288 1.99346L21.9542 0.859035C22.9112 0.533035 23.9765 0.864883 24.5495 1.66746L26.5445 4.45967C26.8355 4.86753 27.2638 5.16576 27.7576 5.30464L31.1424 6.26218C32.1162 6.53847 32.7746 7.40683 32.7456 8.37899L32.6496 11.7633C32.6359 12.2574 32.7989 12.7398 33.1129 13.1316L35.2648 15.8142C35.8835 16.586 35.8835 17.6605 35.2648 18.4309L33.1129 21.115C32.7989 21.5053 32.6359 21.9877 32.6496 22.4818L32.7456 25.8661C32.7746 26.8383 32.1162 27.7081 31.1424 27.9829L27.7576 28.9405C27.2638 29.0808 26.8355 29.379 26.5445 29.7854L24.5495 32.5776C23.9765 33.3802 22.9112 33.7135 21.9542 33.3861L18.6288 32.2531C18.1457 32.0879 17.6154 32.0879 17.1307 32.2531L13.8054 33.3861C12.8498 33.7135 11.7845 33.3802 11.2115 32.5776L9.21507 29.7854C8.92552 29.379 8.49727 29.0808 8.0035 28.9405L4.6187 27.9829C3.64486 27.7081 2.9865 26.8383 3.01393 25.8661L3.11146 22.4818C3.12518 21.9877 2.96211 21.5053 2.64817 21.115L0.496284 18.4309C-0.122459 17.6605 -0.122459 16.586 0.496284 15.8142L2.64817 13.1316C2.96211 12.7398 3.12518 12.2574 3.11146 11.7633L3.01393 8.37899C2.9865 7.40683 3.64486 6.53847 4.6187 6.26218L8.0035 5.30464C8.49727 5.16576 8.92552 4.86753 9.21507 4.45967L11.2115 1.66746C11.7845 0.864883 12.8498 0.533035 13.8054 0.859035L17.1307 1.99346C17.6154 2.15865 18.1457 2.15865 18.6288 1.99346Z" fill="white"/>
</svg>
